<svg xmlns="http://www.w3.org/2000/svg" width="16" height="16" fill="none"><g clip-path="url(#clip0_103_124)"><path fill="#222F3E" d="M10.12 6.5L9.085 5.29a.411.411 0 11.62-.54l1.035 1.21a.7.7 0 001.03 0l.57-.665a.408.408 0 01.62.53l-.575.675a1.5 1.5 0 01-2.265 0z"/><path fill="#E98542" d="M11 12.475H2.835a.407.407 0 110-.815H11a.407.407 0 110 .815z"/><path fill="#222F3E" d="M11.945 14.645h-7.89a1.5 1.5 0 01-1.475-1.27l-1-6.81a.405.405 0 01.34-.465.405.405 0 01.465.34l1 6.81a.675.675 0 00.67.575h7.89a.68.68 0 00.67-.575l1-6.81a.405.405 0 01.465-.34.405.405 0 01.34.465l-1 6.81a1.5 1.5 0 01-1.475 1.27z"/><path fill="#222F3E" d="M4.745 7a1.5 1.5 0 01-1.135-.5l-.57-.675a.408.408 0 01.62-.53l.57.665a.7.7 0 001.03 0l1.035-1.21a.408.408 0 11.62.53L5.88 6.5a1.5 1.5 0 01-1.135.5z"/><path fill="#E98542" d="M14.5 5.425a1.5 1.5 0 110-3 1.5 1.5 0 010 3zm0-2.17a.68.68 0 100 1.36.68.68 0 000-1.36zm-13 2.17a1.5 1.5 0 110-3 1.5 1.5 0 010 3zm0-2.17a.68.68 0 10-.02 1.36.68.68 0 00.02-1.36zM8 4.34a1.5 1.5 0 110-3 1.5 1.5 0 010 3zm0-2.17a.68.68 0 100 1.36.68.68 0 000-1.36z"/></g><defs><clipPath id="clip0_103_124"><path fill="#fff" d="M0 0h16v16H0z"/></clipPath></defs></svg>